<?xml version="1.0" standalone="no"?>
<svg xmlns="http://www.w3.org/2000/svg" viewBox="0 0 283.83203125 52" width="283.83203125" height="52"><rect fill="none" stroke="#000000" stroke-width="3" width="280.83203125" height="49" x="1.5" y="1.5"></rect><g fill="#000000" color="#000000" transform="translate(12, 11.999999999999998) scale(0.2800001)"><svg width="100.0" height="100.0" x="0.0" y="0.0" viewBox="0 0 100 100"><g><rect x="-192" width="185" height="99"></rect><rect y="-36" width="100" height="30"></rect><text transform="matrix(1 0 0 1 66 -19.5)" fill="currentColor" font-family="'Helvetica'" font-size="2.4"></text><text transform="matrix(1 0 0 1 7.166 -24.5)"><tspan x="0" y="0" fill="currentColor" font-family="'Helvetica-Bold'" font-size="6.1578"></tspan><tspan x="1.12" y="4.8" fill="currentColor" font-family="'Helvetica-Bold'" font-size="4"></tspan></text><text transform="matrix(1 0 0 1 -178.5 10.5)" fill="currentColor" font-family="'Helvetica-Bold'" font-size="6.1578"></text><line fill="currentColor" stroke="currentColor" stroke-miterlimit="10" x1="8" y1="-14.5" x2="18" y2="-14.5"></line><line fill="currentColor" stroke="currentColor" stroke-miterlimit="10" x1="-179" y1="16.5" x2="-162" y2="16.5"></line><g><g><g><rect x="-170.802" y="31.318" fill="currentColor" width="8.721" height="8.642"></rect><path fill="currentColor" d="M-164.455,42.312h4.747v-4.703h-4.747V42.312z M-159.266,42.749h-5.63V37.17h5.63V42.749      L-159.266,42.749z M-166.221,44.062h8.279v-8.203h-8.279V44.062L-166.221,44.062z M-157.5,44.5h-9.163v-9.079h9.163V44.5      L-157.5,44.5z"></path><polygon fill="currentColor" points="-166.149,44.133 -166.292,43.991 -158.013,35.787 -157.871,35.929     "></polygon></g></g></g><rect x="-179" y="58" fill="none" width="35" height="32.5"></rect><text transform="matrix(1 0 0 1 -179 60.1299)"><tspan x="0" y="0" fill="currentColor" font-family="'Helvetica-Bold'" font-size="3"></tspan><tspan x="0" y="5" fill="currentColor" font-family="'Helvetica'" font-size="2.4"></tspan><tspan x="0" y="10" fill="currentColor" font-family="'Helvetica'" font-size="2.4"></tspan><tspan x="0" y="14.5" fill="currentColor" font-family="'Helvetica'" font-size="2.4"></tspan><tspan x="0" y="17.5" fill="currentColor" font-family="'Helvetica'" font-size="2.4"></tspan><tspan x="0" y="22" fill="currentColor" font-family="'Helvetica-Bold'" font-size="2.4"></tspan><tspan x="0" y="25" fill="currentColor" font-family="'Helvetica-Bold'" font-size="2.4"></tspan></text><rect x="-136.5" y="58" fill="none" width="35" height="32.5"></rect><text transform="matrix(1 0 0 1 -136.5 60.1299)"><tspan x="0" y="0" fill="currentColor" font-family="'Helvetica-Bold'" font-size="3"></tspan><tspan x="0" y="5" fill="currentColor" font-family="'Helvetica'" font-size="2.4"></tspan><tspan x="0" y="8.5" fill="currentColor" font-family="'Helvetica'" font-size="2.4"></tspan><tspan x="0" y="13.5" fill="currentColor" font-family="'Helvetica'" font-size="2.4"></tspan><tspan x="0" y="16.5" fill="currentColor" font-family="'Helvetica'" font-size="2.4"></tspan></text><rect x="-94" y="58" fill="none" width="35" height="32.5"></rect><text transform="matrix(1 0 0 1 -94 60.1299)"><tspan x="0" y="0" fill="currentColor" font-family="'Helvetica-Bold'" font-size="3"></tspan><tspan x="0" y="5" fill="currentColor" font-family="'Helvetica'" font-size="2.4"></tspan><tspan x="0" y="8" fill="currentColor" font-family="'Helvetica'" font-size="2.4"></tspan></text><rect x="-50" y="58" fill="none" width="35" height="32.5"></rect><text transform="matrix(1 0 0 1 -50 60.1299)"><tspan x="0" y="0" fill="currentColor" font-family="'Helvetica-Bold'" font-size="3"></tspan><tspan x="0" y="5" fill="currentColor" font-family="'Helvetica'" font-size="2.4"></tspan><tspan x="0" y="8" fill="currentColor" font-family="'Helvetica'" font-size="2.4"></tspan></text><text transform="matrix(1.0074 0 0 1 -125.542 30.5933)" fill="currentColor" font-family="'Helvetica'" font-size="2.5731"></text><text transform="matrix(1.0074 0 0 1 -41 39)" fill="currentColor" font-family="'Helvetica-Bold'" font-size="5.1462"></text><rect x="-126.514" y="34.815" fill="currentColor" width="10.261" height="10.185"></rect><rect x="-126.477" y="31.766" fill="currentColor" width="0.522" height="2.337"></rect><rect x="-116.813" y="31.766" fill="currentColor" width="0.523" height="2.337"></rect><rect x="-127" y="32.337" fill="currentColor" width="11.233" height="0.572"></rect><g><rect x="-83.805" y="33.844" fill="currentColor" width="10.305" height="10.156"></rect><rect x="-76.809" y="28.707" fill="currentColor" width="3.308" height="3.261"></rect></g><rect x="-178.5" y="22.5" fill="currentColor" stroke="currentColor" stroke-miterlimit="10" width="30" height="30"></rect><rect x="-136.5" y="22.5" fill="currentColor" stroke="currentColor" stroke-miterlimit="10" width="30" height="30"></rect><rect x="-93.5" y="22.5" fill="currentColor" stroke="currentColor" stroke-miterlimit="10" width="30" height="30"></rect><rect x="-49.5" y="22.5" fill="currentColor" stroke="currentColor" stroke-miterlimit="10" width="30" height="30"></rect></g><g><path d="M88.07,79.446L77.092,68.468c4.261-6.02,6.767-13.372,6.767-21.312c0-20.399-16.531-36.929-36.929-36.929   C26.531,10.228,10,26.757,10,47.156c0,20.398,16.531,36.928,36.93,36.928c7.545,0,14.561-2.263,20.405-6.146L78.457,89.06   c1.254,1.254,3.288,1.254,4.541,0l5.072-5.071C89.323,82.733,89.323,80.701,88.07,79.446z M26.114,26.34   c5.558-5.559,12.95-8.62,20.815-8.62c7.864,0,15.257,3.061,20.815,8.62c5.559,5.56,8.62,12.952,8.62,20.816   c0,5.081-1.279,9.965-3.686,14.286c-5.893-2.51-13.433-4.179-21.767-4.606c2.825-6.369,6.111-14.469,6.111-17.651   c0-5.577-4.52-10.098-10.095-10.098c-5.577,0-10.098,4.521-10.098,10.098c0,3.177,3.279,11.259,6.101,17.622   c-8.337,0.371-15.906,1.983-21.864,4.438c-2.334-4.272-3.575-9.084-3.575-14.088C17.493,39.292,20.554,31.899,26.114,26.34z    M41.537,39.307c0-2.978,2.414-5.392,5.393-5.392c2.978,0,5.392,2.414,5.392,5.392c0,2.979-2.414,5.393-5.392,5.393   C43.951,44.699,41.537,42.285,41.537,39.307z M26.114,67.972c-1.959-1.959-3.607-4.146-4.921-6.502   c6.707-1.469,14.437-2.367,22.7-2.518c1.7,3.748,3.037,6.483,3.037,6.483s1.329-2.725,3.025-6.461   c8.254,0.217,15.949,1.183,22.586,2.715c-1.292,2.271-2.899,4.385-4.796,6.282c-5.559,5.558-12.951,8.619-20.815,8.619   C39.064,76.591,31.672,73.529,26.114,67.972z"></path></g></svg></g><path fill="#000000" fill-rule="nonzero" d="M3.22 22.25L3.22 4.63L0 4.63L0 2.24L9.47 2.24L9.47 4.63L6.26 4.63L6.26 22.25L3.22 22.25ZM11.33 22.25L11.33 0.94L14.30 0.94L14.30 4.73L14.14 7.50Q14.47 7.04 14.85 6.74Q15.23 6.45 15.64 6.26Q16.04 6.08 16.46 6.01Q16.88 5.93 17.29 5.93L17.29 5.93Q18.70 5.93 19.47 6.92Q20.24 7.91 20.24 9.89L20.24 9.89L20.24 22.25L17.27 22.25L17.27 10.00Q17.27 8.93 16.95 8.51Q16.62 8.10 15.98 8.10L15.98 8.10Q15.54 8.10 15.09 8.40Q14.64 8.70 14.30 9.22L14.30 9.22L14.30 22.25L11.33 22.25ZM27.20 22.43L27.20 22.43Q26.16 22.43 25.35 22.04Q24.55 21.66 24 20.84Q23.45 20.02 23.17 18.73Q22.89 17.45 22.89 15.64L22.89 15.64L22.89 12.60Q22.89 11.06 23.12 9.97Q23.34 8.87 23.71 8.13Q24.08 7.38 24.57 6.95Q25.05 6.52 25.57 6.29Q26.09 6.06 26.60 5.99Q27.11 5.93 27.54 5.93L27.54 5.93Q28.34 5.93 29.07 6.17Q29.81 6.41 30.38 6.99Q30.94 7.57 31.27 8.54Q31.61 9.52 31.61 10.97L31.61 10.97Q31.61 11.46 31.58 11.96Q31.55 12.47 31.50 12.96Q31.45 13.44 31.38 13.90Q31.30 14.36 31.22 14.74L31.22 14.74L25.86 14.74L25.86 16.38Q25.86 17.44 25.95 18.16Q26.03 18.88 26.22 19.32Q26.41 19.76 26.75 19.95Q27.08 20.14 27.59 20.14L27.59 20.14Q27.86 20.14 28.11 20.03Q28.37 19.92 28.56 19.66Q28.76 19.41 28.88 18.98Q28.99 18.55 28.99 17.92L28.99 17.92L28.99 17.41L31.46 17.41L31.46 18.04Q31.46 20.33 30.37 21.38Q29.27 22.43 27.20 22.43ZM25.86 12.75L28.84 12.75Q28.85 12.62 28.86 12.40Q28.88 12.19 28.88 11.95Q28.89 11.72 28.89 11.49Q28.89 11.26 28.89 11.10L28.89 11.10Q28.89 9.50 28.51 8.80Q28.14 8.10 27.40 8.10L27.40 8.10Q27.01 8.10 26.72 8.28Q26.43 8.46 26.24 8.89Q26.05 9.32 25.96 10.02Q25.86 10.72 25.86 11.77L25.86 11.77L25.86 12.75ZM39.25 22.25L39.25 0.94L42.21 0.94L42.21 5.24L42.12 7.37L42.13 7.38Q42.33 7.10 42.59 6.84Q42.86 6.59 43.19 6.38Q43.52 6.18 43.93 6.06Q44.33 5.94 44.81 5.94L44.81 5.94Q45.06 5.94 45.40 5.99Q45.75 6.04 46.12 6.22Q46.49 6.41 46.86 6.78Q47.23 7.15 47.51 7.79Q47.80 8.44 47.98 9.40Q48.16 10.36 48.16 11.73L48.16 11.73L48.16 16.62Q48.16 17.99 47.98 18.95Q47.80 19.91 47.51 20.56Q47.21 21.21 46.84 21.59Q46.46 21.96 46.08 22.15Q45.69 22.34 45.33 22.39Q44.96 22.44 44.70 22.44L44.70 22.44Q44.13 22.44 43.68 22.30Q43.23 22.16 42.88 21.92Q42.54 21.68 42.28 21.38Q42.01 21.07 41.81 20.75L41.81 20.75L41.57 22.25L39.25 22.25ZM42.21 9.19L42.21 18.98Q42.30 19.21 42.44 19.42Q42.57 19.63 42.75 19.79Q42.93 19.95 43.16 20.04Q43.39 20.14 43.69 20.14L43.69 20.14Q44.02 20.14 44.29 20.02Q44.55 19.90 44.75 19.58Q44.95 19.25 45.06 18.68Q45.18 18.11 45.18 17.20L45.18 17.20L45.18 11.03Q45.18 10.13 45.06 9.56Q44.95 8.99 44.76 8.66Q44.57 8.33 44.30 8.21Q44.03 8.10 43.70 8.10L43.70 8.10Q43.15 8.10 42.79 8.42Q42.43 8.74 42.21 9.19L42.21 9.19ZM54.73 22.43L54.73 22.43Q53.68 22.43 52.88 22.04Q52.08 21.66 51.53 20.84Q50.98 20.02 50.70 18.73Q50.41 17.45 50.41 15.64L50.41 15.64L50.41 12.60Q50.41 11.06 50.64 9.97Q50.87 8.87 51.24 8.13Q51.61 7.38 52.10 6.95Q52.58 6.52 53.10 6.29Q53.61 6.06 54.12 5.99Q54.63 5.93 55.07 5.93L55.07 5.93Q55.86 5.93 56.60 6.17Q57.34 6.41 57.90 6.99Q58.46 7.57 58.80 8.54Q59.13 9.52 59.13 10.97L59.13 10.97Q59.13 11.46 59.10 11.96Q59.07 12.47 59.03 12.96Q58.98 13.44 58.90 13.90Q58.83 14.36 58.75 14.74L58.75 14.74L53.39 14.74L53.39 16.38Q53.39 17.44 53.47 18.16Q53.55 18.88 53.75 19.32Q53.94 19.76 54.28 19.95Q54.61 20.14 55.11 20.14L55.11 20.14Q55.38 20.14 55.64 20.03Q55.90 19.92 56.09 19.66Q56.29 19.41 56.40 18.98Q56.52 18.55 56.52 17.92L56.52 17.92L56.52 17.41L58.99 17.41L58.99 18.04Q58.99 20.33 57.90 21.38Q56.80 22.43 54.73 22.43ZM53.39 12.75L56.37 12.75Q56.38 12.62 56.39 12.40Q56.40 12.19 56.41 11.95Q56.41 11.72 56.41 11.49Q56.41 11.26 56.41 11.10L56.41 11.10Q56.41 9.50 56.04 8.80Q55.66 8.10 54.93 8.10L54.93 8.10Q54.54 8.10 54.25 8.28Q53.95 8.46 53.77 8.89Q53.58 9.32 53.48 10.02Q53.39 10.72 53.39 11.77L53.39 11.77L53.39 12.75ZM61.01 18.88L61.01 18.88Q61.01 18.35 61.11 17.86Q61.21 17.37 61.30 17.07L61.30 17.07L63.39 17.07Q63.39 17.95 63.47 18.54Q63.56 19.14 63.76 19.49Q63.96 19.84 64.29 19.99Q64.63 20.14 65.11 20.14L65.11 20.14Q65.78 20.14 66.08 19.77Q66.39 19.39 66.39 18.90L66.39 18.90Q66.39 18.64 66.32 18.41Q66.25 18.18 66.12 17.94Q65.99 17.70 65.80 17.45Q65.61 17.20 65.38 16.91L65.38 16.91L63.21 14.36Q62.79 13.83 62.40 13.28Q62.00 12.74 61.71 12.16Q61.41 11.58 61.22 10.95Q61.04 10.31 61.04 9.61L61.04 9.61Q61.04 8.67 61.37 7.98Q61.69 7.29 62.23 6.83Q62.78 6.38 63.49 6.15Q64.21 5.93 65.00 5.93L65.00 5.93Q65.88 5.93 66.59 6.14Q67.29 6.35 67.79 6.77Q68.30 7.20 68.57 7.82Q68.84 8.45 68.84 9.28L68.84 9.28Q68.84 9.84 68.74 10.37Q68.64 10.90 68.54 11.27L68.54 11.27L66.49 11.27Q66.48 10.48 66.42 9.88Q66.36 9.28 66.21 8.89Q66.05 8.50 65.77 8.30Q65.50 8.10 65.05 8.10L65.05 8.10Q64.66 8.10 64.41 8.22Q64.15 8.34 63.99 8.54Q63.83 8.74 63.77 8.99Q63.70 9.23 63.70 9.49L63.70 9.49Q63.70 10.05 63.97 10.54Q64.24 11.02 64.69 11.58L64.69 11.58L67.05 14.36Q67.31 14.67 67.65 15.12Q67.99 15.57 68.30 16.12Q68.60 16.66 68.81 17.31Q69.02 17.95 69.02 18.66L69.02 18.66Q69.02 19.51 68.75 20.21Q68.48 20.91 67.96 21.40Q67.43 21.89 66.66 22.16Q65.89 22.43 64.91 22.43L64.91 22.43Q64.10 22.43 63.39 22.25Q62.67 22.07 62.14 21.65Q61.62 21.23 61.31 20.55Q61.01 19.88 61.01 18.88ZM71.70 18.23L71.70 8.23L70.44 8.23L70.44 6.12L71.95 6.12L72.55 1.93L74.66 1.93L74.66 6.12L77.24 6.12L77.24 8.23L74.66 8.23L74.66 18.49Q74.66 19.02 74.76 19.34Q74.86 19.66 75.04 19.85Q75.21 20.03 75.45 20.09Q75.68 20.14 75.94 20.14L75.94 20.14Q76.37 20.14 76.71 20.04Q77.04 19.93 77.34 19.75L77.34 19.75L77.34 21.39Q77.09 21.70 76.79 21.90Q76.49 22.10 76.17 22.22Q75.86 22.35 75.53 22.39Q75.20 22.44 74.88 22.44L74.88 22.44Q74.26 22.44 73.69 22.28Q73.11 22.11 72.67 21.65Q72.22 21.19 71.96 20.37Q71.70 19.55 71.70 18.23L71.70 18.23ZM84.45 22.25L84.45 0.94L87.41 0.94L87.41 22.25L84.45 22.25ZM94.57 22.43L94.57 22.43Q94.05 22.43 93.52 22.35Q92.99 22.27 92.49 22.01Q91.99 21.75 91.55 21.27Q91.11 20.79 90.79 20.00Q90.46 19.22 90.27 18.07Q90.08 16.92 90.08 15.33L90.08 15.33L90.08 12.80Q90.08 11.23 90.28 10.11Q90.47 8.99 90.80 8.23Q91.14 7.46 91.58 7.01Q92.03 6.56 92.53 6.32Q93.02 6.08 93.55 6.01Q94.08 5.93 94.58 5.93L94.58 5.93Q95.06 5.93 95.58 6Q96.09 6.07 96.59 6.30Q97.08 6.53 97.52 6.98Q97.96 7.43 98.29 8.19Q98.63 8.95 98.82 10.08Q99.01 11.21 99.01 12.80L99.01 12.80L99.01 15.33Q99.01 16.90 98.81 18.04Q98.61 19.17 98.27 19.96Q97.93 20.74 97.49 21.23Q97.04 21.71 96.55 21.98Q96.06 22.25 95.55 22.34Q95.04 22.43 94.57 22.43ZM94.59 20.14L94.59 20.14Q94.99 20.14 95.27 19.94Q95.54 19.73 95.71 19.27Q95.88 18.80 95.96 18.03Q96.04 17.26 96.04 16.13L96.04 16.13L96.04 12.15Q96.04 11.02 95.96 10.24Q95.88 9.47 95.71 8.99Q95.54 8.52 95.27 8.31Q94.99 8.10 94.59 8.10L94.59 8.10Q94.17 8.10 93.88 8.31Q93.60 8.52 93.41 8.99Q93.22 9.47 93.14 10.24Q93.06 11.02 93.06 12.15L93.06 12.15L93.06 16.13Q93.06 17.26 93.14 18.03Q93.22 18.80 93.41 19.27Q93.60 19.73 93.88 19.94Q94.17 20.14 94.59 20.14ZM105.40 22.43L105.40 22.43Q103.36 22.43 102.29 20.75Q101.21 19.08 101.21 15.64L101.21 15.64L101.21 12.60Q101.21 11.06 101.44 9.97Q101.66 8.87 102.03 8.13Q102.40 7.38 102.87 6.95Q103.35 6.52 103.85 6.29Q104.36 6.06 104.85 5.99Q105.34 5.93 105.75 5.93L105.75 5.93Q106.57 5.93 107.25 6.15Q107.93 6.36 108.42 6.80Q108.91 7.24 109.18 7.91Q109.45 8.58 109.45 9.48L109.45 9.48Q109.45 10.04 109.40 10.45Q109.35 10.85 109.25 11.23L109.25 11.23L106.89 11.23L106.89 10.69Q106.89 9.47 106.60 8.78Q106.31 8.10 105.66 8.10L105.66 8.10Q105.29 8.10 105.02 8.27Q104.75 8.44 104.57 8.85Q104.39 9.26 104.30 9.95Q104.21 10.64 104.21 11.68L104.21 11.68L104.21 16.27Q104.21 17.32 104.29 18.06Q104.36 18.80 104.53 19.26Q104.71 19.72 105 19.93Q105.29 20.14 105.73 20.14L105.73 20.14Q105.95 20.14 106.16 20.03Q106.37 19.92 106.53 19.66Q106.69 19.41 106.79 18.98Q106.89 18.55 106.89 17.92L106.89 17.92L106.89 17.41L109.44 17.41L109.44 18.04Q109.44 20.33 108.43 21.38Q107.41 22.43 105.40 22.43ZM114.07 22.43L114.07 22.43Q113.32 22.43 112.74 22.13Q112.16 21.83 111.76 21.32Q111.36 20.80 111.16 20.09Q110.95 19.38 110.95 18.55L110.95 18.55Q110.95 17.55 111.20 16.78Q111.45 16.01 111.92 15.39Q112.39 14.77 113.10 14.26Q113.80 13.75 114.73 13.29L114.73 13.29Q115.17 13.07 115.73 12.84Q116.29 12.61 116.72 12.45L116.72 12.45L116.72 10.31Q116.72 9.84 116.68 9.44Q116.65 9.04 116.51 8.74Q116.38 8.44 116.11 8.27Q115.84 8.10 115.37 8.10L115.37 8.10Q115.05 8.10 114.76 8.21Q114.46 8.33 114.23 8.61Q114 8.89 113.87 9.36Q113.73 9.83 113.73 10.52L113.73 10.52L113.73 11.23L111.47 11.23Q111.36 10.77 111.31 10.39Q111.26 10.01 111.26 9.63L111.26 9.63Q111.26 8.73 111.57 8.04Q111.88 7.35 112.44 6.88Q112.99 6.41 113.77 6.17Q114.54 5.93 115.46 5.93L115.46 5.93Q116.67 5.93 117.47 6.19Q118.27 6.46 118.74 6.98Q119.21 7.51 119.41 8.31Q119.60 9.11 119.60 10.17L119.60 10.17L119.60 22.25L117.40 22.25L117.19 20.87Q116.71 21.56 115.90 22.00Q115.10 22.43 114.07 22.43ZM115.38 20.14L115.38 20.14Q115.76 20.14 116.12 19.95Q116.47 19.76 116.72 19.48L116.72 19.48L116.72 14.43Q116.48 14.52 116.19 14.65Q115.90 14.78 115.56 14.99L115.56 14.99Q115.24 15.19 114.94 15.47Q114.63 15.75 114.39 16.14Q114.15 16.52 114.01 17.01Q113.86 17.50 113.86 18.09L113.86 18.09Q113.86 19.02 114.22 19.58Q114.59 20.14 115.38 20.14ZM123.01 18.23L123.01 8.23L121.76 8.23L121.76 6.12L123.27 6.12L123.87 1.93L125.98 1.93L125.98 6.12L128.55 6.12L128.55 8.23L125.98 8.23L125.98 18.49Q125.98 19.02 126.08 19.34Q126.18 19.66 126.35 19.85Q126.53 20.03 126.76 20.09Q127.00 20.14 127.25 20.14L127.25 20.14Q127.69 20.14 128.02 20.04Q128.36 19.93 128.66 19.75L128.66 19.75L128.66 21.39Q128.40 21.70 128.10 21.90Q127.80 22.10 127.49 22.22Q127.17 22.35 126.84 22.39Q126.52 22.44 126.20 22.44L126.20 22.44Q125.58 22.44 125.00 22.28Q124.43 22.11 123.98 21.65Q123.54 21.19 123.28 20.37Q123.01 19.55 123.01 18.23L123.01 18.23ZM132.16 3.81L132.16 3.81Q131.34 3.81 130.87 3.32Q130.39 2.82 130.39 1.88L130.39 1.88Q130.39 1.35 130.52 0.99Q130.64 0.63 130.87 0.42Q131.10 0.20 131.43 0.10Q131.75 0 132.18 0L132.18 0Q133.05 0 133.51 0.45Q133.97 0.89 133.97 1.88L133.97 1.88Q133.97 2.79 133.51 3.30Q133.04 3.81 132.16 3.81ZM130.63 22.25L130.63 6.12L133.59 6.12L133.59 22.25L130.63 22.25ZM140.75 22.43L140.75 22.43Q140.24 22.43 139.71 22.35Q139.17 22.27 138.67 22.01Q138.18 21.75 137.74 21.27Q137.30 20.79 136.97 20.00Q136.64 19.22 136.45 18.07Q136.27 16.92 136.27 15.33L136.27 15.33L136.27 12.80Q136.27 11.23 136.46 10.11Q136.65 8.99 136.99 8.23Q137.32 7.46 137.77 7.01Q138.21 6.56 138.71 6.32Q139.21 6.08 139.73 6.01Q140.26 5.93 140.77 5.93L140.77 5.93Q141.25 5.93 141.76 6Q142.28 6.07 142.77 6.30Q143.26 6.53 143.70 6.98Q144.14 7.43 144.47 8.19Q144.81 8.95 145.00 10.08Q145.20 11.21 145.20 12.80L145.20 12.80L145.20 15.33Q145.20 16.90 145.00 18.04Q144.80 19.17 144.46 19.96Q144.12 20.74 143.67 21.23Q143.23 21.71 142.73 21.98Q142.24 22.25 141.73 22.34Q141.22 22.43 140.75 22.43ZM140.78 20.14L140.78 20.14Q141.18 20.14 141.45 19.94Q141.73 19.73 141.90 19.27Q142.07 18.80 142.14 18.03Q142.22 17.26 142.22 16.13L142.22 16.13L142.22 12.15Q142.22 11.02 142.14 10.24Q142.07 9.47 141.90 8.99Q141.73 8.52 141.45 8.31Q141.18 8.10 140.78 8.10L140.78 8.10Q140.36 8.10 140.07 8.31Q139.78 8.52 139.59 8.99Q139.41 9.47 139.32 10.24Q139.24 11.02 139.24 12.15L139.24 12.15L139.24 16.13Q139.24 17.26 139.32 18.03Q139.41 18.80 139.59 19.27Q139.78 19.73 140.07 19.94Q140.36 20.14 140.78 20.14ZM147.82 22.25L147.82 6.12L150.11 6.12L150.38 7.84L150.38 7.85Q150.73 7.30 151.13 6.93Q151.54 6.56 151.97 6.34Q152.40 6.12 152.85 6.02Q153.30 5.93 153.75 5.93L153.75 5.93Q155.17 5.93 155.94 6.92Q156.70 7.91 156.70 9.89L156.70 9.89L156.70 22.25L153.74 22.25L153.74 10.00Q153.74 8.93 153.41 8.51Q153.08 8.10 152.45 8.10L152.45 8.10Q152.00 8.10 151.56 8.39Q151.13 8.68 150.79 9.20L150.79 9.20L150.79 22.25L147.82 22.25ZM165.25 18.23L165.25 8.23L163.99 8.23L163.99 6.12L165.50 6.12L166.10 1.93L168.21 1.93L168.21 6.12L170.79 6.12L170.79 8.23L168.21 8.23L168.21 18.49Q168.21 19.02 168.31 19.34Q168.41 19.66 168.59 19.85Q168.76 20.03 169.00 20.09Q169.23 20.14 169.49 20.14L169.49 20.14Q169.92 20.14 170.26 20.04Q170.59 19.93 170.89 19.75L170.89 19.75L170.89 21.39Q170.64 21.70 170.34 21.90Q170.04 22.10 169.72 22.22Q169.41 22.35 169.08 22.39Q168.75 22.44 168.43 22.44L168.43 22.44Q167.81 22.44 167.24 22.28Q166.66 22.11 166.22 21.65Q165.77 21.19 165.51 20.37Q165.25 19.55 165.25 18.23L165.25 18.23ZM176.88 22.43L176.88 22.43Q176.37 22.43 175.83 22.35Q175.30 22.27 174.80 22.01Q174.30 21.75 173.87 21.27Q173.43 20.79 173.10 20.00Q172.77 19.22 172.58 18.07Q172.39 16.92 172.39 15.33L172.39 15.33L172.39 12.80Q172.39 11.23 172.59 10.11Q172.78 8.99 173.12 8.23Q173.45 7.46 173.89 7.01Q174.34 6.56 174.84 6.32Q175.34 6.08 175.86 6.01Q176.39 5.93 176.89 5.93L176.89 5.93Q177.38 5.93 177.89 6Q178.41 6.07 178.90 6.30Q179.39 6.53 179.83 6.98Q180.27 7.43 180.60 8.19Q180.94 8.95 181.13 10.08Q181.32 11.21 181.32 12.80L181.32 12.80L181.32 15.33Q181.32 16.90 181.13 18.04Q180.93 19.17 180.59 19.96Q180.25 20.74 179.80 21.23Q179.36 21.71 178.86 21.98Q178.37 22.25 177.86 22.34Q177.35 22.43 176.88 22.43ZM176.91 20.14L176.91 20.14Q177.30 20.14 177.58 19.94Q177.86 19.73 178.03 19.27Q178.20 18.80 178.27 18.03Q178.35 17.26 178.35 16.13L178.35 16.13L178.35 12.15Q178.35 11.02 178.27 10.24Q178.20 9.47 178.03 8.99Q177.86 8.52 177.58 8.31Q177.30 8.10 176.91 8.10L176.91 8.10Q176.48 8.10 176.20 8.31Q175.91 8.52 175.72 8.99Q175.54 9.47 175.45 10.24Q175.37 11.02 175.37 12.15L175.37 12.15L175.37 16.13Q175.37 17.26 175.45 18.03Q175.54 18.80 175.72 19.27Q175.91 19.73 176.20 19.94Q176.48 20.14 176.91 20.14ZM189.13 22.25L189.13 0.94L192.09 0.94L192.09 22.25L189.13 22.25ZM196.77 3.81L196.77 3.81Q195.95 3.81 195.47 3.32Q195 2.82 195 1.88L195 1.88Q195 1.35 195.12 0.99Q195.25 0.63 195.47 0.42Q195.70 0.20 196.03 0.10Q196.36 0 196.78 0L196.78 0Q197.66 0 198.12 0.45Q198.57 0.89 198.57 1.88L198.57 1.88Q198.57 2.79 198.11 3.30Q197.65 3.81 196.77 3.81ZM195.23 22.25L195.23 6.12L198.20 6.12L198.20 22.25L195.23 22.25ZM203.59 22.25L199.96 6.12L202.91 6.12L204.47 14.70L204.86 18.13L204.95 18.13L205.39 14.70L206.94 6.12L209.80 6.12L206.12 22.25L203.59 22.25ZM215.43 22.43L215.43 22.43Q214.38 22.43 213.58 22.04Q212.78 21.66 212.23 20.84Q211.68 20.02 211.39 18.73Q211.11 17.45 211.11 15.64L211.11 15.64L211.11 12.60Q211.11 11.06 211.34 9.97Q211.57 8.87 211.94 8.13Q212.31 7.38 212.79 6.95Q213.28 6.52 213.80 6.29Q214.31 6.06 214.82 5.99Q215.33 5.93 215.77 5.93L215.77 5.93Q216.56 5.93 217.30 6.17Q218.04 6.41 218.60 6.99Q219.16 7.57 219.50 8.54Q219.83 9.52 219.83 10.97L219.83 10.97Q219.83 11.46 219.80 11.96Q219.77 12.47 219.73 12.96Q219.68 13.44 219.60 13.90Q219.53 14.36 219.45 14.74L219.45 14.74L214.09 14.74L214.09 16.38Q214.09 17.44 214.17 18.16Q214.25 18.88 214.45 19.32Q214.64 19.76 214.97 19.95Q215.31 20.14 215.81 20.14L215.81 20.14Q216.08 20.14 216.34 20.03Q216.60 19.92 216.79 19.66Q216.98 19.41 217.10 18.98Q217.22 18.55 217.22 17.92L217.22 17.92L217.22 17.41L219.69 17.41L219.69 18.04Q219.69 20.33 218.60 21.38Q217.50 22.43 215.43 22.43ZM214.09 12.75L217.07 12.75Q217.08 12.62 217.09 12.40Q217.10 12.19 217.11 11.95Q217.11 11.72 217.11 11.49Q217.11 11.26 217.11 11.10L217.11 11.10Q217.11 9.50 216.74 8.80Q216.36 8.10 215.63 8.10L215.63 8.10Q215.24 8.10 214.95 8.28Q214.65 8.46 214.46 8.89Q214.28 9.32 214.18 10.02Q214.09 10.72 214.09 11.77L214.09 11.77L214.09 12.75Z" transform="translate(52 14.873046875)"></path></svg>